<svg width="24" height="21" viewBox="0 0 24 21" fill="none" xmlns="http://www.w3.org/2000/svg">
<path fill-rule="evenodd" clip-rule="evenodd" d="M2.81818 2.625H21.1818C22.186 2.625 23 3.4085 23 4.375V14.875C23 15.8415 22.186 16.625 21.1818 16.625H2.81818C1.81403 16.625 1 15.8415 1 14.875V4.375C1 3.4085 1.81403 2.625 2.81818 2.625ZM3 8.75V14.875H21V8.75H3ZM3 7H21V4.375H3V7Z" fill="black"/>
<path fill-rule="evenodd" clip-rule="evenodd" d="M6 14V12.25H9V14H6Z" fill="black"/>
<path fill-rule="evenodd" clip-rule="evenodd" d="M15 14V12.25H17V14H15Z" fill="black"/>
<path fill-rule="evenodd" clip-rule="evenodd" d="M12 14V12.25H14V14H12Z" fill="black"/>
</svg>
